<svg xmlns="http://www.w3.org/2000/svg" viewBox="0 0 32 32" role="img" aria-label="host-pocket">
  <defs>
    <filter id="hp-shadow" x="-30%" y="-30%" width="160%" height="160%">
      <feDropShadow dx="0" dy="1" stdDeviation="0.75" flood-color="#1F1A18" flood-opacity="0.12"/>
    </filter>
  </defs>
  <rect width="32" height="32" rx="8" fill="#ffffff" filter="url(#hp-shadow)"/>
  <svg x="5.12" y="5.12" width="21.76" height="21.76" viewBox="20 32 220 220" preserveAspectRatio="xMidYMid meet">
    <g transform="translate(120 142) scale(1.1 1) translate(-120 -142)">
      <path d="M 28 32 L 212 32 L 196 208 Q 192 232 120 252 Q 48 232 44 208 Z" fill="#FF5B3E"/>
      <path d="M 38 42 L 202 42 L 188 202 Q 184 222 120 238 Q 56 222 52 202 Z" fill="none" stroke="#ffffff" stroke-width="3" stroke-dasharray="5 5" stroke-linejoin="round"/>
      <path d="M 48 108 L 104 108 L 120 128 L 136 108 L 192 108" fill="none" stroke="#ffffff" stroke-width="8" stroke-linecap="round" stroke-linejoin="round"/>
      <path d="M 48 132 L 104 132 L 120 152 L 136 132 L 192 132" fill="none" stroke="#ffffff" stroke-width="8" stroke-linecap="round" stroke-linejoin="round"/>
    </g>
  </svg>
</svg>
